name rise49.8558peak67.6521fall70.3087.mot
datacolumns 19
datarows 36
range 4.76331100000000 4.82165100000000
endheader
time	ground_force1_vx	ground_force1_vy	ground_force1_vz	ground_force1_px	ground_force1_py	ground_force1_pz	ground_force2_vx	ground_force2_vy	ground_force2_vz	ground_force2_px	ground_force2_py	ground_force2_pz	ground_torque1_x	ground_torque1_y	ground_torque1_z	ground_torque2_x	ground_torque2_y	ground_torque2_z	
4.76331100000000	14.01561600000000	680.30911800000001	43.55858800000000	0.24271500000000	0.00000000000000	0.10482900000000	0.00000000000000	0.00000000000000	0.00000000000000	0.00000000000000	0.00000000000000	0.00000000000000	0.00000000000000	19.05060100000000	0.00000000000000	0.00000000000000	0.00000000000000	0.00000000000000	
4.76498300000000	13.75867500000000	681.11352799999997	43.62571900000000	0.24223500000000	0.00000000000000	0.10479800000000	0.00000000000000	0.00000000000000	0.00000000000000	0.00000000000000	0.00000000000000	0.00000000000000	0.00000000000000	19.09088600000000	0.00000000000000	0.00000000000000	0.00000000000000	0.00000000000000	
4.76664700000000	13.50141400000000	681.98016600000005	43.70120900000000	0.24175100000000	0.00000000000000	0.10476800000000	0.00000000000000	0.00000000000000	0.00000000000000	0.00000000000000	0.00000000000000	0.00000000000000	0.00000000000000	19.13532800000000	0.00000000000000	0.00000000000000	0.00000000000000	0.00000000000000	
4.76831800000000	13.24305300000000	682.90605400000004	43.78455000000000	0.24126100000000	0.00000000000000	0.10474000000000	0.00000000000000	0.00000000000000	0.00000000000000	0.00000000000000	0.00000000000000	0.00000000000000	0.00000000000000	19.18369400000000	0.00000000000000	0.00000000000000	0.00000000000000	0.00000000000000	
4.76998700000000	12.98281100000000	683.88817800000004	43.87524000000000	0.24076300000000	0.00000000000000	0.10471400000000	0.00000000000000	0.00000000000000	0.00000000000000	0.00000000000000	0.00000000000000	0.00000000000000	0.00000000000000	19.23575600000000	0.00000000000000	0.00000000000000	0.00000000000000	0.00000000000000	
4.77164500000000	12.71991500000000	684.92349700000000	43.97277800000000	0.24025400000000	0.00000000000000	0.10468900000000	0.00000000000000	0.00000000000000	0.00000000000000	0.00000000000000	0.00000000000000	0.00000000000000	0.00000000000000	19.29129300000000	0.00000000000000	0.00000000000000	0.00000000000000	0.00000000000000	
4.77331100000000	12.45359800000000	686.00896200000000	44.07666900000000	0.23973200000000	0.00000000000000	0.10466600000000	0.00000000000000	0.00000000000000	0.00000000000000	0.00000000000000	0.00000000000000	0.00000000000000	0.00000000000000	19.35009200000000	0.00000000000000	0.00000000000000	0.00000000000000	0.00000000000000	
4.77498300000000	12.18310200000000	687.14152700000000	44.18642300000000	0.23919400000000	0.00000000000000	0.10464500000000	0.00000000000000	0.00000000000000	0.00000000000000	0.00000000000000	0.00000000000000	0.00000000000000	0.00000000000000	19.41194700000000	0.00000000000000	0.00000000000000	0.00000000000000	0.00000000000000	
4.77664700000000	11.90768800000000	688.31815600000004	44.30156000000000	0.23863900000000	0.00000000000000	0.10462600000000	0.00000000000000	0.00000000000000	0.00000000000000	0.00000000000000	0.00000000000000	0.00000000000000	0.00000000000000	19.47666100000000	0.00000000000000	0.00000000000000	0.00000000000000	0.00000000000000	
4.77831600000000	11.62662900000000	689.53584400000000	44.42160800000000	0.23806500000000	0.00000000000000	0.10460900000000	0.00000000000000	0.00000000000000	0.00000000000000	0.00000000000000	0.00000000000000	0.00000000000000	0.00000000000000	19.54404500000000	0.00000000000000	0.00000000000000	0.00000000000000	0.00000000000000	
4.77999000000000	11.33922200000000	690.79161999999997	44.54610400000000	0.23747000000000	0.00000000000000	0.10459400000000	0.00000000000000	0.00000000000000	0.00000000000000	0.00000000000000	0.00000000000000	0.00000000000000	0.00000000000000	19.61391900000000	0.00000000000000	0.00000000000000	0.00000000000000	0.00000000000000	
4.78164700000000	11.04478400000000	692.08256400000005	44.67459800000000	0.23685200000000	0.00000000000000	0.10458000000000	0.00000000000000	0.00000000000000	0.00000000000000	0.00000000000000	0.00000000000000	0.00000000000000	0.00000000000000	19.68611300000000	0.00000000000000	0.00000000000000	0.00000000000000	0.00000000000000	
4.78333000000000	10.74266100000000	693.40581799999995	44.80665400000000	0.23621000000000	0.00000000000000	0.10456800000000	0.00000000000000	0.00000000000000	0.00000000000000	0.00000000000000	0.00000000000000	0.00000000000000	0.00000000000000	19.76046600000000	0.00000000000000	0.00000000000000	0.00000000000000	0.00000000000000	
4.78498400000000	10.43222400000000	694.75859200000002	44.94184800000000	0.23554300000000	0.00000000000000	0.10455800000000	0.00000000000000	0.00000000000000	0.00000000000000	0.00000000000000	0.00000000000000	0.00000000000000	0.00000000000000	19.83682600000000	0.00000000000000	0.00000000000000	0.00000000000000	0.00000000000000	
4.78664700000000	10.11287900000000	696.13817900000004	45.07977200000000	0.23485000000000	0.00000000000000	0.10455000000000	0.00000000000000	0.00000000000000	0.00000000000000	0.00000000000000	0.00000000000000	0.00000000000000	0.00000000000000	19.91505300000000	0.00000000000000	0.00000000000000	0.00000000000000	0.00000000000000	
4.78831200000000	9.78406200000000	697.54196100000001	45.22003400000000	0.23412900000000	0.00000000000000	0.10454400000000	0.00000000000000	0.00000000000000	0.00000000000000	0.00000000000000	0.00000000000000	0.00000000000000	0.00000000000000	19.99501700000000	0.00000000000000	0.00000000000000	0.00000000000000	0.00000000000000	
4.78998400000000	9.44524800000000	698.96741899999995	45.36226000000000	0.23338100000000	0.00000000000000	0.10453900000000	0.00000000000000	0.00000000000000	0.00000000000000	0.00000000000000	0.00000000000000	0.00000000000000	0.00000000000000	20.07659500000000	0.00000000000000	0.00000000000000	0.00000000000000	0.00000000000000	
4.79164600000000	9.09594700000000	700.41214200000002	45.50609200000000	0.23260400000000	0.00000000000000	0.10453600000000	0.00000000000000	0.00000000000000	0.00000000000000	0.00000000000000	0.00000000000000	0.00000000000000	0.00000000000000	20.15967800000000	0.00000000000000	0.00000000000000	0.00000000000000	0.00000000000000	
4.79331400000000	8.73571200000000	701.87383100000000	45.65119200000000	0.23179800000000	0.00000000000000	0.10453400000000	0.00000000000000	0.00000000000000	0.00000000000000	0.00000000000000	0.00000000000000	0.00000000000000	0.00000000000000	20.24416500000000	0.00000000000000	0.00000000000000	0.00000000000000	0.00000000000000	
4.79497800000000	8.36413400000000	703.35031300000003	45.79724200000000	0.23096200000000	0.00000000000000	0.10453400000000	0.00000000000000	0.00000000000000	0.00000000000000	0.00000000000000	0.00000000000000	0.00000000000000	0.00000000000000	20.32996400000000	0.00000000000000	0.00000000000000	0.00000000000000	0.00000000000000	
4.79664400000000	7.98085000000000	704.83953699999995	45.94394500000000	0.23009800000000	0.00000000000000	0.10453600000000	0.00000000000000	0.00000000000000	0.00000000000000	0.00000000000000	0.00000000000000	0.00000000000000	0.00000000000000	20.41699400000000	0.00000000000000	0.00000000000000	0.00000000000000	0.00000000000000	
4.79831200000000	7.58554100000000	706.33958700000005	46.09102300000000	0.22920400000000	0.00000000000000	0.10453900000000	0.00000000000000	0.00000000000000	0.00000000000000	0.00000000000000	0.00000000000000	0.00000000000000	0.00000000000000	20.50518300000000	0.00000000000000	0.00000000000000	0.00000000000000	0.00000000000000	
4.79998800000000	7.17793400000000	707.84868600000004	46.23822000000000	0.22828200000000	0.00000000000000	0.10454300000000	0.00000000000000	0.00000000000000	0.00000000000000	0.00000000000000	0.00000000000000	0.00000000000000	0.00000000000000	20.59446700000000	0.00000000000000	0.00000000000000	0.00000000000000	0.00000000000000	
4.80164500000000	6.75780200000000	709.36519399999997	46.38530400000000	0.22733100000000	0.00000000000000	0.10454800000000	0.00000000000000	0.00000000000000	0.00000000000000	0.00000000000000	0.00000000000000	0.00000000000000	0.00000000000000	20.68479200000000	0.00000000000000	0.00000000000000	0.00000000000000	0.00000000000000	
4.80331900000000	6.32496600000000	710.88761699999998	46.53206400000000	0.22635300000000	0.00000000000000	0.10455500000000	0.00000000000000	0.00000000000000	0.00000000000000	0.00000000000000	0.00000000000000	0.00000000000000	0.00000000000000	20.77611100000000	0.00000000000000	0.00000000000000	0.00000000000000	0.00000000000000	
4.80498300000000	5.87929500000000	712.41460500000005	46.67831300000000	0.22534700000000	0.00000000000000	0.10456300000000	0.00000000000000	0.00000000000000	0.00000000000000	0.00000000000000	0.00000000000000	0.00000000000000	0.00000000000000	20.86838400000000	0.00000000000000	0.00000000000000	0.00000000000000	0.00000000000000	
4.80665200000000	5.42070800000000	713.94495700000004	46.82388500000000	0.22431500000000	0.00000000000000	0.10457200000000	0.00000000000000	0.00000000000000	0.00000000000000	0.00000000000000	0.00000000000000	0.00000000000000	0.00000000000000	20.96157800000000	0.00000000000000	0.00000000000000	0.00000000000000	0.00000000000000	
4.80831800000000	4.94917100000000	715.47761600000001	46.96864000000000	0.22325800000000	0.00000000000000	0.10458100000000	0.00000000000000	0.00000000000000	0.00000000000000	0.00000000000000	0.00000000000000	0.00000000000000	0.00000000000000	21.05566600000000	0.00000000000000	0.00000000000000	0.00000000000000	0.00000000000000	
4.80998000000000	4.46469900000000	717.01167499999997	47.11246100000000	0.22217700000000	0.00000000000000	0.10459200000000	0.00000000000000	0.00000000000000	0.00000000000000	0.00000000000000	0.00000000000000	0.00000000000000	0.00000000000000	21.15062900000000	0.00000000000000	0.00000000000000	0.00000000000000	0.00000000000000	
4.81165200000000	3.96735500000000	718.54636900000003	47.25525400000000	0.22107300000000	0.00000000000000	0.10460300000000	0.00000000000000	0.00000000000000	0.00000000000000	0.00000000000000	0.00000000000000	0.00000000000000	0.00000000000000	21.24644900000000	0.00000000000000	0.00000000000000	0.00000000000000	0.00000000000000	
4.81331300000000	3.45725100000000	720.08107900000005	47.39695000000000	0.21994800000000	0.00000000000000	0.10461500000000	0.00000000000000	0.00000000000000	0.00000000000000	0.00000000000000	0.00000000000000	0.00000000000000	0.00000000000000	21.34311400000000	0.00000000000000	0.00000000000000	0.00000000000000	0.00000000000000	
4.81498000000000	2.93454500000000	721.61532399999999	47.53750200000000	0.21880200000000	0.00000000000000	0.10462800000000	0.00000000000000	0.00000000000000	0.00000000000000	0.00000000000000	0.00000000000000	0.00000000000000	0.00000000000000	21.44061700000000	0.00000000000000	0.00000000000000	0.00000000000000	0.00000000000000	
4.81664900000000	2.39944100000000	723.14876200000003	47.67688900000000	0.21763800000000	0.00000000000000	0.10464100000000	0.00000000000000	0.00000000000000	0.00000000000000	0.00000000000000	0.00000000000000	0.00000000000000	0.00000000000000	21.53895100000000	0.00000000000000	0.00000000000000	0.00000000000000	0.00000000000000	
4.81831700000000	1.85218800000000	724.68118100000004	47.81511100000000	0.21645700000000	0.00000000000000	0.10465400000000	0.00000000000000	0.00000000000000	0.00000000000000	0.00000000000000	0.00000000000000	0.00000000000000	0.00000000000000	21.63811300000000	0.00000000000000	0.00000000000000	0.00000000000000	0.00000000000000	
4.81998100000000	1.29308000000000	726.21249699999998	47.95219200000000	0.21526000000000	0.00000000000000	0.10466800000000	0.00000000000000	0.00000000000000	0.00000000000000	0.00000000000000	0.00000000000000	0.00000000000000	0.00000000000000	21.73810000000000	0.00000000000000	0.00000000000000	0.00000000000000	0.00000000000000	
4.82165100000000	0.72245100000000	727.74274700000001	48.08818100000000	0.21405000000000	0.00000000000000	0.10468200000000	0.00000000000000	0.00000000000000	0.00000000000000	0.00000000000000	0.00000000000000	0.00000000000000	0.00000000000000	21.83891000000000	0.00000000000000	0.00000000000000	0.00000000000000	0.00000000000000	
